<svg width="10" height="7" viewBox="0 0 10 7" fill="none" xmlns="http://www.w3.org/2000/svg">
<path fill-rule="evenodd" clip-rule="evenodd" d="M0.535156 0.43745C0.535156 0.195853 0.731009 0 0.972607 0H9.56255C9.80415 0 10 0.195853 10 0.43745C10 0.679047 9.80415 0.8749 9.56255 0.8749H0.972607C0.73101 0.8749 0.535156 0.679047 0.535156 0.43745ZM0.535156 6.56245C0.535156 6.32085 0.731009 6.125 0.972607 6.125H9.56255C9.80415 6.125 10 6.32085 10 6.56245C10 6.80405 9.80415 6.9999 9.56255 6.9999H0.972607C0.73101 6.9999 0.535156 6.80405 0.535156 6.56245ZM0.972607 3.0625C0.731009 3.0625 0.535156 3.25835 0.535156 3.49995C0.535156 3.74155 0.73101 3.9374 0.972607 3.9374H9.56255C9.80415 3.9374 10 3.74155 10 3.49995C10 3.25835 9.80415 3.0625 9.56255 3.0625H0.972607Z" fill="#A69B7B"/>
</svg>
