<svg width="320" height="115" viewBox="0 0 320 115" fill="none" xmlns="http://www.w3.org/2000/svg">
<path d="M35 114.2C25 114.2 16.7333 111.267 10.2 105.4C3.93333 99.5333 0.8 92.1333 0.8 83.2C0.8 74 3.2 64.8667 8 55.8C12.8 46.7333 19.0667 38.6 26.8 31.4C30.6667 27.8 34.8667 24.5333 39.4 21.6C43.9333 18.5333 48.8 15.8667 54 13.6C59.4667 11.0667 64.8 9.26666 70 8.19999C75.3333 6.99999 80.3333 6.39999 85 6.39999C93.5333 6.39999 100.6 8.06666 106.2 11.4C109.267 4.2 112.2 0.599997 115 0.599997C119.533 0.599997 121.8 1.46666 121.8 3.2C118.6 7.33333 116 10.6667 114 13.2C112 15.7333 110.667 17.5333 110 18.6C102.133 29.2667 98.2 37.0667 98.2 42L99 45C99 45.2667 98.8667 45.4 98.6 45.4C97 45.4 96.2 43.6667 96.2 40.2C96.2 34.2 98.8667 25.8 104.2 15C100.067 11.2667 94.2667 9.4 86.8 9.4C75.3333 9.4 63.6667 13.0667 51.8 20.4C39.9333 27.6 30 36.8 22 48C18 53.4667 15.0667 58.8 13.2 64C11.4667 69.0667 10.6 73.9333 10.6 78.6C10.6 84.4667 11.9333 89.7333 14.6 94.4C17.2667 99.0667 20.9333 102.667 25.6 105.2C30.2667 107.867 35.5333 109.2 41.4 109.2C50.7333 109.2 59.6 107.333 68 103.6C76.5333 99.7333 84.5333 93.8667 92 86C93.8667 84.1333 95.2 83.2 96 83.2C96.5333 83.2 96.8 83.6 96.8 84.4C96.8 85.6 96.2 86.8667 95 88.2C87.9333 96.2 78.6667 102.533 67.2 107.2C55.6 111.867 44.8667 114.2 35 114.2ZM110.339 106.6C107.672 106.6 105.206 105.4 102.939 103C100.806 100.467 99.7391 97.2667 99.7391 93.4C99.7391 89.5333 102.072 83.5333 106.739 75.4C111.406 67.4 117.139 60.2 123.939 53.8C130.606 47.5333 136.339 44.4 141.139 44.4H143.139C148.072 44.4 152.272 45.4 155.739 47.4C159.206 49.2667 160.939 51.8 160.939 55C160.939 56.4667 160.339 57.2 159.139 57.2C158.739 57.2 158.539 57 158.539 56.6C156.406 51.6667 153.139 49.2 148.739 49.2C141.139 49.2 132.472 55.4667 122.739 68C113.006 80.2667 108.139 89.7333 108.139 96.4C108.139 98.9333 108.806 100.2 110.139 100.2C116.139 100.2 128.739 86.6667 147.939 59.6C147.806 59.7333 147.872 59.7333 148.139 59.6C148.539 59.3333 148.872 59.2 149.139 59.2C149.806 59.2 151.206 59.8667 153.339 61.2C155.472 62.4 156.539 63.4667 156.539 64.4C156.539 64.4 156.272 64.8667 155.739 65.8C155.206 66.6 154.539 67.8667 153.739 69.6C151.606 74.1333 149.939 78.6 148.739 83C147.672 87.2667 147.139 91 147.139 94.2C147.139 101.267 148.872 104.8 152.339 104.8L154.339 104.4L154.739 104.6C154.739 105.8 153.072 106.4 149.739 106.4C146.539 106.4 143.872 104.933 141.739 102C139.739 98.9333 138.739 94.8667 138.739 89.8C138.739 84.8667 139.606 79.4 141.339 73.4C141.206 73.8 140.739 74.5333 139.939 75.6C139.139 76.6667 137.872 78.5333 136.139 81.2C125.206 98.1333 116.606 106.6 110.339 106.6ZM178.211 107.2C166.878 107.2 161.211 101.933 161.211 91.4C161.211 83.4 165.211 73.6 173.211 62C181.344 50.2667 189.144 44.4 196.611 44.4C199.278 44.4 202.011 45.4 204.811 47.4C207.744 49.2667 209.211 51.3333 209.211 53.6C209.211 59.8667 207.078 63 202.811 63C201.744 63 201.078 62.6667 200.811 62C202.411 58.1333 203.211 55.0667 203.211 52.8C203.211 50.6667 202.678 49.6 201.611 49.6C200.144 49.6 197.478 51.1333 193.611 54.2C190.278 56.8667 187.144 59.9333 184.211 63.4C181.411 66.8667 178.878 70.4667 176.611 74.2C171.811 82.3333 169.411 89.1333 169.411 94.6C169.411 99.9333 171.478 102.6 175.611 102.6C180.411 102.6 185.678 100.133 191.411 95.2C193.278 93.4667 195.278 91.5333 197.411 89.4C199.544 87.1333 201.878 84.6667 204.411 82C209.344 76.6667 211.944 74 212.211 74C213.011 74 213.411 74.3333 213.411 75C213.411 75.5333 213.278 76.0667 213.011 76.6C199.011 97 187.411 107.2 178.211 107.2ZM218.152 106.6C215.485 106.6 213.018 105.4 210.752 103C208.618 100.467 207.552 97.2667 207.552 93.4C207.552 89.5333 209.885 83.5333 214.552 75.4C219.218 67.4 224.952 60.2 231.752 53.8C238.418 47.5333 244.152 44.4 248.952 44.4H250.952C255.885 44.4 260.085 45.4 263.552 47.4C267.018 49.2667 268.752 51.8 268.752 55C268.752 56.4667 268.152 57.2 266.952 57.2C266.552 57.2 266.352 57 266.352 56.6C264.218 51.6667 260.952 49.2 256.552 49.2C248.952 49.2 240.285 55.4667 230.552 68C220.818 80.2667 215.952 89.7333 215.952 96.4C215.952 98.9333 216.618 100.2 217.952 100.2C223.952 100.2 236.552 86.6667 255.752 59.6C255.618 59.7333 255.685 59.7333 255.952 59.6C256.352 59.3333 256.685 59.2 256.952 59.2C257.618 59.2 259.018 59.8667 261.152 61.2C263.285 62.4 264.352 63.4667 264.352 64.4C264.352 64.4 264.085 64.8667 263.552 65.8C263.018 66.6 262.352 67.8667 261.552 69.6C259.418 74.1333 257.752 78.6 256.552 83C255.485 87.2667 254.952 91 254.952 94.2C254.952 101.267 256.685 104.8 260.152 104.8L262.152 104.4L262.552 104.6C262.552 105.8 260.885 106.4 257.552 106.4C254.352 106.4 251.685 104.933 249.552 102C247.552 98.9333 246.552 94.8667 246.552 89.8C246.552 84.8667 247.418 79.4 249.152 73.4C249.018 73.8 248.552 74.5333 247.752 75.6C246.952 76.6667 245.685 78.5333 243.952 81.2C233.018 98.1333 224.418 106.6 218.152 106.6ZM283.303 105C272.503 105 267.103 99.3333 267.103 88C267.103 83.4667 268.103 78.6667 270.103 73.6C272.236 68.4 274.836 64.2 277.903 61C276.436 58.4667 275.703 55.3333 275.703 51.6C275.703 47.7333 277.303 44.2667 280.503 41.2C283.703 38 287.636 36.4 292.303 36.4C300.97 36.4 306.836 40.9333 309.903 50C316.17 51.2 319.303 52.6667 319.303 54.4C319.303 56.4 318.636 57.4 317.303 57.4L312.303 56.6C312.436 57.9333 312.503 59.1333 312.503 60.2C312.636 61.2667 312.703 62.2 312.703 63C312.703 73.9333 309.903 83.7333 304.303 92.4C298.703 100.8 291.703 105 283.303 105ZM280.703 59.2C289.77 52.4 296.036 49 299.503 49H300.103C298.236 44.3333 294.77 42 289.703 42C287.436 42 285.57 42.8 284.103 44.4C282.636 45.8667 281.57 47.6667 280.903 49.8C280.236 51.9333 279.903 53.8667 279.903 55.6C279.903 57.2 280.17 58.4 280.703 59.2ZM283.103 102.6C288.57 102.6 293.703 98.3333 298.503 89.8C303.303 81.1333 305.703 72.8667 305.703 65C305.703 61.5333 305.103 58.7333 303.903 56.6C298.97 57.4 293.57 60.5333 287.703 66C289.036 66.9333 290.103 67.4 290.903 67.4C291.703 67.2667 292.17 67.2 292.303 67.2C292.97 67.2 293.303 67.5333 293.303 68.2C293.303 69.2667 292.436 69.8 290.703 69.8C289.236 69.8 287.57 69.3333 285.703 68.4C278.636 76.6667 275.103 84.4667 275.103 91.8C275.103 99 277.77 102.6 283.103 102.6Z" fill="#BFBFBF"/>
</svg>
