<svg width="80" height="30" viewBox="0 0 80 30" fill="none" xmlns="http://www.w3.org/2000/svg">
<path d="M8.75 29.3C6.25 29.3 4.18333 28.5667 2.55 27.1C0.983333 25.6333 0.2 23.7833 0.2 21.55C0.2 19.25 0.8 16.9667 2 14.7C3.2 12.4333 4.76667 10.4 6.7 8.6C7.66667 7.7 8.71667 6.88333 9.85 6.15C10.9833 5.38333 12.2 4.71667 13.5 4.15C14.8667 3.51667 16.2 3.06667 17.5 2.8C18.8333 2.5 20.0833 2.35 21.25 2.35C23.3833 2.35 25.15 2.76667 26.55 3.6C27.3167 1.8 28.05 0.899999 28.75 0.899999C29.8833 0.899999 30.45 1.11667 30.45 1.55C29.65 2.58333 29 3.41667 28.5 4.05C28 4.68333 27.6667 5.13333 27.5 5.4C25.5333 8.06667 24.55 10.0167 24.55 11.25L24.75 12C24.75 12.0667 24.7167 12.1 24.65 12.1C24.25 12.1 24.05 11.6667 24.05 10.8C24.05 9.3 24.7167 7.2 26.05 4.5C25.0167 3.56667 23.5667 3.1 21.7 3.1C18.8333 3.1 15.9167 4.01667 12.95 5.85C9.98333 7.65 7.5 9.95 5.5 12.75C4.5 14.1167 3.76667 15.45 3.3 16.75C2.86667 18.0167 2.65 19.2333 2.65 20.4C2.65 21.8667 2.98333 23.1833 3.65 24.35C4.31667 25.5167 5.23333 26.4167 6.4 27.05C7.56667 27.7167 8.88333 28.05 10.35 28.05C12.6833 28.05 14.9 27.5833 17 26.65C19.1333 25.6833 21.1333 24.2167 23 22.25C23.4667 21.7833 23.8 21.55 24 21.55C24.1333 21.55 24.2 21.65 24.2 21.85C24.2 22.15 24.05 22.4667 23.75 22.8C21.9833 24.8 19.6667 26.3833 16.8 27.55C13.9 28.7167 11.2167 29.3 8.75 29.3ZM27.5848 27.4C26.9181 27.4 26.3014 27.1 25.7348 26.5C25.2014 25.8667 24.9348 25.0667 24.9348 24.1C24.9348 23.1333 25.5181 21.6333 26.6848 19.6C27.8514 17.6 29.2848 15.8 30.9848 14.2C32.6514 12.6333 34.0848 11.85 35.2848 11.85H35.7848C37.0181 11.85 38.0681 12.1 38.9348 12.6C39.8014 13.0667 40.2348 13.7 40.2348 14.5C40.2348 14.8667 40.0848 15.05 39.7848 15.05C39.6848 15.05 39.6348 15 39.6348 14.9C39.1014 13.6667 38.2848 13.05 37.1848 13.05C35.2848 13.05 33.1181 14.6167 30.6848 17.75C28.2514 20.8167 27.0348 23.1833 27.0348 24.85C27.0348 25.4833 27.2014 25.8 27.5348 25.8C29.0348 25.8 32.1848 22.4167 36.9848 15.65C36.9514 15.6833 36.9681 15.6833 37.0348 15.65C37.1348 15.5833 37.2181 15.55 37.2848 15.55C37.4514 15.55 37.8014 15.7167 38.3348 16.05C38.8681 16.35 39.1348 16.6167 39.1348 16.85C39.1348 16.85 39.0681 16.9667 38.9348 17.2C38.8014 17.4 38.6348 17.7167 38.4348 18.15C37.9014 19.2833 37.4848 20.4 37.1848 21.5C36.9181 22.5667 36.7848 23.5 36.7848 24.3C36.7848 26.0667 37.2181 26.95 38.0848 26.95L38.5848 26.85L38.6848 26.9C38.6848 27.2 38.2681 27.35 37.4348 27.35C36.6348 27.35 35.9681 26.9833 35.4348 26.25C34.9348 25.4833 34.6848 24.4667 34.6848 23.2C34.6848 21.9667 34.9014 20.6 35.3348 19.1C35.3014 19.2 35.1848 19.3833 34.9848 19.65C34.7848 19.9167 34.4681 20.3833 34.0348 21.05C31.3014 25.2833 29.1514 27.4 27.5848 27.4ZM44.5527 27.55C41.7194 27.55 40.3027 26.2333 40.3027 23.6C40.3027 21.6 41.3027 19.15 43.3027 16.25C45.3361 13.3167 47.2861 11.85 49.1527 11.85C49.8194 11.85 50.5027 12.1 51.2027 12.6C51.9361 13.0667 52.3027 13.5833 52.3027 14.15C52.3027 15.7167 51.7694 16.5 50.7027 16.5C50.4361 16.5 50.2694 16.4167 50.2027 16.25C50.6027 15.2833 50.8027 14.5167 50.8027 13.95C50.8027 13.4167 50.6694 13.15 50.4027 13.15C50.0361 13.15 49.3694 13.5333 48.4027 14.3C47.5694 14.9667 46.7861 15.7333 46.0527 16.6C45.3527 17.4667 44.7194 18.3667 44.1527 19.3C42.9527 21.3333 42.3527 23.0333 42.3527 24.4C42.3527 25.7333 42.8694 26.4 43.9027 26.4C45.1027 26.4 46.4194 25.7833 47.8527 24.55C48.3194 24.1167 48.8194 23.6333 49.3527 23.1C49.8861 22.5333 50.4694 21.9167 51.1027 21.25C52.3361 19.9167 52.9861 19.25 53.0527 19.25C53.2527 19.25 53.3527 19.3333 53.3527 19.5C53.3527 19.6333 53.3194 19.7667 53.2527 19.9C49.7527 25 46.8527 27.55 44.5527 27.55ZM54.5379 27.4C53.8712 27.4 53.2546 27.1 52.6879 26.5C52.1546 25.8667 51.8879 25.0667 51.8879 24.1C51.8879 23.1333 52.4712 21.6333 53.6379 19.6C54.8046 17.6 56.2379 15.8 57.9379 14.2C59.6046 12.6333 61.0379 11.85 62.2379 11.85H62.7379C63.9712 11.85 65.0212 12.1 65.8879 12.6C66.7546 13.0667 67.1879 13.7 67.1879 14.5C67.1879 14.8667 67.0379 15.05 66.7379 15.05C66.6379 15.05 66.5879 15 66.5879 14.9C66.0546 13.6667 65.2379 13.05 64.1379 13.05C62.2379 13.05 60.0712 14.6167 57.6379 17.75C55.2046 20.8167 53.9879 23.1833 53.9879 24.85C53.9879 25.4833 54.1546 25.8 54.4879 25.8C55.9879 25.8 59.1379 22.4167 63.9379 15.65C63.9046 15.6833 63.9212 15.6833 63.9879 15.65C64.0879 15.5833 64.1712 15.55 64.2379 15.55C64.4046 15.55 64.7546 15.7167 65.2879 16.05C65.8212 16.35 66.0879 16.6167 66.0879 16.85C66.0879 16.85 66.0212 16.9667 65.8879 17.2C65.7546 17.4 65.5879 17.7167 65.3879 18.15C64.8546 19.2833 64.4379 20.4 64.1379 21.5C63.8712 22.5667 63.7379 23.5 63.7379 24.3C63.7379 26.0667 64.1712 26.95 65.0379 26.95L65.5379 26.85L65.6379 26.9C65.6379 27.2 65.2212 27.35 64.3879 27.35C63.5879 27.35 62.9212 26.9833 62.3879 26.25C61.8879 25.4833 61.6379 24.4667 61.6379 23.2C61.6379 21.9667 61.8546 20.6 62.2879 19.1C62.2546 19.2 62.1379 19.3833 61.9379 19.65C61.7379 19.9167 61.4212 20.3833 60.9879 21.05C58.2546 25.2833 56.1046 27.4 54.5379 27.4ZM70.8258 27C68.1258 27 66.7758 25.5833 66.7758 22.75C66.7758 21.6167 67.0258 20.4167 67.5258 19.15C68.0591 17.85 68.7091 16.8 69.4758 16C69.1091 15.3667 68.9258 14.5833 68.9258 13.65C68.9258 12.6833 69.3258 11.8167 70.1258 11.05C70.9258 10.25 71.9091 9.85 73.0758 9.85C75.2424 9.85 76.7091 10.9833 77.4758 13.25C79.0424 13.55 79.8258 13.9167 79.8258 14.35C79.8258 14.85 79.6591 15.1 79.3258 15.1L78.0758 14.9C78.1091 15.2333 78.1258 15.5333 78.1258 15.8C78.1591 16.0667 78.1758 16.3 78.1758 16.5C78.1758 19.2333 77.4758 21.6833 76.0758 23.85C74.6758 25.95 72.9258 27 70.8258 27ZM70.1758 15.55C72.4424 13.85 74.0091 13 74.8758 13H75.0258C74.5591 11.8333 73.6924 11.25 72.4258 11.25C71.8591 11.25 71.3924 11.45 71.0258 11.85C70.6591 12.2167 70.3924 12.6667 70.2258 13.2C70.0591 13.7333 69.9758 14.2167 69.9758 14.65C69.9758 15.05 70.0424 15.35 70.1758 15.55ZM70.7758 26.4C72.1424 26.4 73.4258 25.3333 74.6258 23.2C75.8258 21.0333 76.4258 18.9667 76.4258 17C76.4258 16.1333 76.2758 15.4333 75.9758 14.9C74.7424 15.1 73.3924 15.8833 71.9258 17.25C72.2591 17.4833 72.5258 17.6 72.7258 17.6C72.9258 17.5667 73.0424 17.55 73.0758 17.55C73.2424 17.55 73.3258 17.6333 73.3258 17.8C73.3258 18.0667 73.1091 18.2 72.6758 18.2C72.3091 18.2 71.8924 18.0833 71.4258 17.85C69.6591 19.9167 68.7758 21.8667 68.7758 23.7C68.7758 25.5 69.4424 26.4 70.7758 26.4Z" fill="#BFBFBF"/>
</svg>
