<svg width="171" height="9" viewBox="0 0 171 9" fill="none" xmlns="http://www.w3.org/2000/svg">
<line x1="11" y1="4.5" x2="160" y2="4.50001" stroke="#A69B7B"/>
<circle cx="85.5" cy="4.5" r="2.5" fill="#A69B7B"/>
<circle cx="11.5" cy="4.5" r="2.5" fill="#A69B7B"/>
<circle cx="159.5" cy="4.5" r="2.5" fill="#A69B7B"/>
<path d="M166.5 0.493796C167.532 1.95483 167.739 3.66583 171 4.49397C170.259 4.60392 168 5.4938 166.609 8.73409C165 5.49219 163.5 4.99219 162 4.49415C164.5 3.99219 165.609 2.23598 166.5 0.493796Z" fill="#A69B7B"/>
<path d="M4.50011 0.493796C5.53165 1.95483 5.73886 3.66583 9.0001 4.49397C8.25922 4.60392 6.00011 5.4938 4.60875 8.73409C3.00009 5.49219 1.50009 4.99219 9.88391e-05 4.49415C2.50009 3.99219 3.60947 2.23598 4.50011 0.493796Z" fill="#A69B7B"/>
</svg>
